<svg width="99" height="107" viewBox="0 0 99 107" fill="none" xmlns="http://www.w3.org/2000/svg">
<path d="M69.0938 54.6145H29.9062V62.4166H69.0938V54.6145Z" fill="white"/>
<path d="M58.7812 67.9895H29.9062V75.7916H58.7812V67.9895Z" fill="white"/>
<path d="M59.8125 28.9791L70.4447 29.5364L82.5 28.9791L59.8125 4.45825L59.2969 19.4271L59.8125 28.9791Z" fill="#0066DA"/>
<path d="M69.0938 41.2395H29.9062V49.0416H69.0938V41.2395Z" fill="white"/>
<path d="M60.3125 25.75V0H23.1875C19.7689 0 17 3.14267 17 7.02273V95.9773C17 99.8573 19.7689 103 23.1875 103H76.8125C80.2311 103 83 99.8573 83 95.9773V25.75H60.3125ZM58.25 73.7386H31.4375V67.8864H58.25V73.7386ZM68.5625 59.6932H31.4375V53.8409H68.5625V59.6932ZM68.5625 45.6477H31.4375V39.7955H68.5625V45.6477Z" fill="#2684FC"/>
</svg>
