<svg width="1440" height="396" viewBox="0 0 1440 396" fill="none" xmlns="http://www.w3.org/2000/svg">
<path d="M1485 223.5C1485.72 197.48 1371.5 23.5505 910 185.307C747.086 242.409 594.898 260.958 463.5 252C222.676 235.582 27.6882 133.203 -11.5 0L-45 460L1485 485.5V223.5Z" fill="#DEE6E7" fill-opacity="0.34"/>
<path d="M1485 223.5C1485.72 197.48 1371.5 23.5505 910 185.307C747.086 242.409 594.898 260.958 463.5 252C222.676 235.582 27.6882 133.203 -11.5 0L-45 460L1485 485.5V223.5Z" fill="#DEE6E7" fill-opacity="0.34"/>
<path d="M1479 252.5C1479.72 226.48 1365.5 52.5505 904 214.307C741.086 271.409 588.898 289.958 457.5 281C216.676 264.582 21.6882 162.203 -17.5 29L-51 489L1479 514.5V252.5Z" fill="#DEE6E7" fill-opacity="0.52"/>
<path d="M1479 252.5C1479.72 226.48 1365.5 52.5505 904 214.307C741.086 271.409 588.898 289.958 457.5 281C216.676 264.582 21.6882 162.203 -17.5 29L-51 489L1479 514.5V252.5Z" fill="#DEE6E7" fill-opacity="0.52"/>
<path d="M1504 299.73C1504.73 273.683 1388.64 99.5747 919.602 261.498C754.027 318.659 599.352 337.227 465.808 328.26C221.049 311.825 22.8757 209.34 -16.9527 76L-51 536.474L1504 562V299.73Z" fill="#DEE6E7"/>
</svg>
