<svg width="90" height="91" viewBox="0 0 90 91" fill="none" xmlns="http://www.w3.org/2000/svg">
<path d="M81.2109 0H8.78906C3.935 0 0 3.97872 0 8.88672V82.1133C0 87.0213 3.935 91 8.78906 91H81.2109C86.065 91 90 87.0213 90 82.1133V8.88672C90 3.97872 86.065 0 81.2109 0Z" fill="url(#paint0_linear)"/>
<path d="M74.0813 11.8301H55.0688C52.7389 11.8301 50.8501 13.7399 50.8501 16.0957V47.377C50.8501 49.7328 52.7389 51.6426 55.0688 51.6426H74.0813C76.4113 51.6426 78.3001 49.7328 78.3001 47.377V16.0957C78.3001 13.7399 76.4113 11.8301 74.0813 11.8301Z" fill="white"/>
<path d="M34.9314 11.8301H15.9189C13.589 11.8301 11.7002 13.7399 11.7002 16.0957V70.1269C11.7002 72.4828 13.589 74.3926 15.9189 74.3926H34.9314C37.2614 74.3926 39.1502 72.4828 39.1502 70.1269V16.0957C39.1502 13.7399 37.2614 11.8301 34.9314 11.8301Z" fill="white"/>
<defs>
<linearGradient id="paint0_linear" x1="45" y1="0" x2="45" y2="91" gradientUnits="userSpaceOnUse">
<stop stop-color="#0091E6"/>
<stop offset="1" stop-color="#0079BF"/>
</linearGradient>
</defs>
</svg>
