<svg width="98" height="98" viewBox="0 0 98 98" fill="none" xmlns="http://www.w3.org/2000/svg">
<path d="M78.6914 2.97266L92.108 18.0002C92.1387 18.0341 92.1669 18.0612 92.1978 18.0985C92.2259 18.1324 92.2567 18.1596 92.2848 18.1968C92.2989 18.2103 92.313 18.2204 92.327 18.2443C92.341 18.2579 92.3551 18.2816 92.3692 18.2952C93.184 19.214 93.771 19.9194 94.1952 20.5534C95.448 22.7945 92.8102 22.3437 90.5937 22.408H22.2337C22.1381 22.408 22.0399 22.4114 21.9471 22.4149C20.4949 22.408 19.7139 22.2317 18.6099 20.7297V20.7262C18.6099 20.723 18.6071 20.723 18.6071 20.723C18.062 19.8617 17.3121 18.909 16.2755 17.6511L16.2699 17.6441C16.252 17.6263 16.2359 17.6059 16.2222 17.5832C16.2054 17.5595 16.1885 17.5459 16.1716 17.5221L16.166 17.5187C16.1492 17.4951 16.1323 17.4815 16.1183 17.4577C16.1014 17.4341 16.0817 17.4204 16.0649 17.3967L4.11768 2.976H78.6914V2.97266Z" fill="url(#paint0_linear)"/>
<path d="M20.0537 29.2536V42.484C20.079 43.2876 20.3347 44.0132 20.7307 44.532H20.7363C21.1297 45.0508 21.6604 45.373 22.2336 45.3762H93.0966C93.6698 45.3762 94.2007 45.054 94.594 44.5388H94.5997C95.0181 43.986 95.2795 43.2164 95.2795 42.3619V28.4907C95.2767 27.6464 95.0181 26.8767 94.5968 26.3274C94.2035 25.8053 93.6697 25.4832 93.0939 25.4832H22.2336C21.6605 25.4832 21.1267 25.8053 20.7336 26.3208C20.3149 26.8701 20.0537 27.643 20.0537 28.4974V29.2536Z" fill="url(#paint1_linear)"/>
<path d="M0.935059 51.1272V29.8606L12.2221 43.4809C13.3737 44.871 14.6295 46.285 15.6886 47.7802C16.8459 49.4213 17.3348 50.913 17.4472 53.0491C17.4808 53.6865 17.495 54.4088 17.5006 55.2394C17.5118 56.9179 17.4838 58.5998 17.4838 60.2781C17.4838 62.4075 17.4921 64.5402 17.5035 66.6696C17.5063 67.9614 17.259 69.6297 15.6185 67.7886L15.5876 67.7512C15.579 67.741 15.5707 67.7275 15.5594 67.7138L15.5088 67.6527L2.33396 51.7504C1.94921 51.286 1.4322 50.9775 0.935059 51.1232V51.1272Z" fill="url(#paint2_linear)"/>
<path d="M20.0538 79.8904V91.5102C20.0538 92.4936 20.3291 93.3785 20.7673 94.0058C21.1577 94.5653 21.6831 94.9147 22.2392 94.9147H93.0994C93.6528 94.9113 94.1725 94.5655 94.563 94.0093C95.0041 93.3785 95.2795 92.4935 95.2795 91.5036V76.4352C95.2767 75.4518 95.0041 74.567 94.5658 73.9398C94.181 73.3906 93.6668 73.0413 93.1193 73.031H22.2365C21.6802 73.0344 21.1606 73.3803 20.77 73.9364C20.3291 74.567 20.0537 75.452 20.0537 76.4421V76.4489L20.0538 79.8904Z" fill="url(#paint3_linear)"/>
<path d="M20.0537 56.5521V66.7346C20.0706 67.66 20.3402 68.4875 20.7616 69.081C21.1521 69.6303 21.6746 69.9693 22.2364 69.9728H93.0994C93.6556 69.9728 94.181 69.6303 94.5686 69.0844C95.004 68.4705 95.2794 67.6025 95.2794 66.6397V51.8019C95.2766 50.8423 95.0041 49.9776 94.5714 49.3674C94.181 48.8179 93.6585 48.4756 93.0995 48.4722H22.2364C21.6774 48.4756 21.1548 48.8179 20.7645 49.3639C20.3292 49.9776 20.0537 50.8423 20.0537 51.8052V56.5657V56.5521Z" fill="url(#paint4_linear)"/>
<path d="M35.2821 17.8001H24.5877L14.6182 5.77002H25.3125L35.2821 17.8001Z" fill="#B5BF2C"/>
<path d="M0.780585 3.30825C-0.82911 1.08058 0.252438 0.0227605 2.19356 0.0227605H77.1186C79.2676 0.0227605 79.4978 -0.302712 81.1131 1.5079L93.8412 15.7623C97.6842 20.0617 97.9987 21.4214 97.9987 29.1148V41.1382C97.9987 44.278 98.1335 46.743 95.6474 46.743C97.8554 46.743 97.9987 49.2182 97.9987 51.8664V66.3411C97.9987 68.884 97.5268 71.4949 95.4004 71.4949C97.5942 71.4949 97.9987 74.004 97.9987 77.2318V90.3573C97.9987 91.1879 97.9032 92.1205 97.701 92.9817C97.5044 94.1346 97.0831 95.1754 96.5043 96.0029C95.6447 97.2303 94.4396 97.9966 93.0968 98H22.2367C19.568 97.8915 17.9837 97.7356 15.8179 95.6807C15.315 95.2875 15.0285 94.9078 14.5454 94.2668C14.2813 93.9211 13.9442 93.4733 13.3992 92.8155L0.42668 77.1608C-0.0677149 76.5607 -0.0677155 75.5842 0.429513 74.9841C0.92668 74.3841 1.73291 74.3841 2.23008 74.9841L15.2027 90.6423C17.3854 93.2769 17.478 91.6866 17.4949 90.0726C17.5173 87.7127 17.5173 85.2782 17.5005 82.8266C17.4864 80.606 17.523 78.4256 17.374 76.4489C17.1971 74.1297 16.4189 73.1124 14.5818 70.8813C14.5755 70.8742 14.5699 70.8663 14.565 70.8576C14.5622 70.8542 14.5594 70.8474 14.5537 70.844C14.5454 70.8338 14.5369 70.8202 14.5257 70.8202C14.5153 70.8078 14.505 70.7955 14.4948 70.7831C13.8515 70.02 13.2167 69.2403 12.5791 68.4706L0.423909 53.806C0.418243 53.7922 0.409866 53.7788 0.404322 53.7788C-0.0733201 53.2025 -0.112615 52.1785 0.311566 51.6088C0.949285 50.7478 1.78354 51.09 2.33127 51.758L15.5061 67.6602L15.5567 67.7213C15.5679 67.7348 15.5763 67.7449 15.5848 67.7586L15.6156 67.7959C17.259 69.6337 17.5062 67.9655 17.5006 66.6769C17.4922 64.5475 17.4838 62.4149 17.4838 60.2854C17.4838 58.6037 17.5119 56.9219 17.5006 55.2435C17.495 54.4163 17.481 53.6939 17.4473 53.053C17.3349 50.9171 16.8461 49.4286 15.6887 47.7875C14.6298 46.2922 13.3712 44.8748 12.2223 43.4881L0.42668 29.2505C-0.0677149 28.6505 -0.0677155 27.6773 0.429513 27.0772C0.92668 26.477 1.73291 26.477 2.23008 27.0772L14.4442 41.8199C17.3095 45.275 17.5033 42.7727 17.5033 41.3417C17.4977 38.7954 17.4977 36.2387 17.5005 33.6856C17.5033 31.3595 17.551 29.0302 17.4837 26.7177C17.391 23.6322 16.891 22.7574 14.2643 19.5872L0.783295 3.31517L0.780585 3.30825ZM4.14582 3.01661L16.065 17.4034C17.2083 18.7867 17.9753 19.8649 18.6073 20.7295C20.0146 22.652 20.9023 22.4147 23.3294 22.4147H90.5938C92.8102 22.3537 95.448 22.8012 94.1925 20.5601C93.7766 19.8141 93.0631 19.0783 92.1081 18.0102L78.7226 3.01661H4.14582ZM94.4789 44.6847C94.5182 44.6338 94.5573 44.6 94.5941 44.5457H94.5998C95.0154 43.9963 95.2796 43.2233 95.2796 42.3723V28.5009C95.2768 27.6568 95.0154 26.887 94.5969 26.3343C94.2036 25.8154 93.6698 25.4932 93.094 25.4932H22.2338C21.6579 25.4932 21.1269 25.8154 20.7338 26.3309C20.3151 26.8802 20.0539 27.6533 20.0539 28.5077V42.4875C20.0792 43.2911 20.3349 44.0166 20.7309 44.5389H20.7365C21.1298 45.0542 21.6607 45.3763 22.2338 45.3797H93.0969C93.6166 45.3797 94.0996 45.1119 94.4789 44.678V44.6847H94.4789ZM20.0539 56.5555V66.7412C20.0708 67.6634 20.3405 68.4942 20.7619 69.0877C21.1524 69.6369 21.6748 69.976 22.2338 69.9794H93.0968C93.6558 69.976 94.1811 69.6369 94.5687 69.0877C95.0041 68.4738 95.2767 67.6092 95.2795 66.6463V51.8052C95.2767 50.8492 95.0042 49.9845 94.5687 49.3707C94.1811 48.8247 93.6587 48.4824 93.0968 48.479H22.2338C21.6748 48.4824 21.1522 48.8247 20.7646 49.3707C20.3264 49.9845 20.0538 50.8492 20.0538 51.812V56.5726V56.5555H20.0539ZM20.0539 79.9004V91.5202C20.0539 92.5036 20.3293 93.3885 20.7675 94.0158C21.1578 94.5751 21.6832 94.9245 22.2367 94.9245H93.0968C93.6531 94.921 94.1727 94.5721 94.5632 94.0158C95.0043 93.3885 95.2769 92.5001 95.2797 91.5134V76.4452C95.2769 75.4586 95.0043 74.5769 94.5632 73.9499C94.1813 73.4004 93.667 73.0513 93.1195 73.041H22.2338C21.6804 73.0444 21.1578 73.3903 20.7702 73.9465C20.3293 74.5769 20.0539 75.462 20.0539 76.452V76.459L20.0539 79.9004Z" fill="#0D0D0D"/>
<path d="M94.5125 21.5635C95.0658 23.3131 95.2456 24.6049 95.2738 28.3956C95.254 27.5887 94.9984 26.8597 94.5968 26.3308C94.2035 25.812 93.6667 25.4866 93.091 25.4866H22.2308C21.6578 25.49 21.124 25.8087 20.7308 26.3276C20.4105 26.748 20.183 27.3041 20.0959 27.9245C20.0537 25.7918 20.0903 22.5401 19.5425 21.7535C20.2393 22.3198 20.9274 22.4112 21.9443 22.418C22.0371 22.4111 22.1354 22.4111 22.2308 22.4111H90.5908C92.386 22.3604 94.4563 22.6452 94.5125 21.5635ZM95.2766 28.7416C95.2766 28.8027 95.2794 28.8705 95.2794 28.935H95.2766V28.7416Z" fill="#F2A7D7"/>
<path d="M26.3418 29.5149V43.0776H28.9487V29.5149H26.3418ZM31.2859 29.5149V43.0776H33.8927V29.5149H31.2859Z" fill="url(#paint5_linear)"/>
<path d="M26.3408 79.5345V93.0972H28.9477V79.5344H26.3408V79.5345ZM31.2849 79.5345V93.0972H33.8917V79.5344H31.2849V79.5345Z" fill="url(#paint6_linear)"/>
<path d="M26.3408 54.2534V67.9246H28.9477V54.2534H26.3408ZM31.2849 54.2534V67.9246H33.8917V54.2534H31.2849Z" fill="url(#paint7_linear)"/>
<path d="M45.154 0.158203L60.3739 18.5256L60.3711 18.529C64.1184 23.0521 64.1212 23.059 64.1212 39.2493V97.8436H54.337V38.8595C54.337 25.5002 54.337 25.5002 52.4241 23.1911L33.3389 0.158203H45.1569H45.154Z" fill="#0D0D0D"/>
<path d="M45.6926 2.97266C50.4936 8.76736 55.2213 14.4772 59.4713 19.6074C62.8479 23.6796 62.8479 23.6796 62.8479 39.2428V94.8194H55.6116V38.8529C55.6116 24.8595 55.6116 24.8595 53.3251 22.0962L37.4814 2.97266H45.6926Z" fill="url(#paint8_linear)"/>
<path d="M62.8421 44.5083V59.6374C62.8421 61.4312 61.859 62.9028 60.6539 62.9028H57.8055C56.6004 62.9028 55.6172 61.4346 55.6172 59.6374V44.5083H62.8421Z" fill="#191919" stroke="black" stroke-width="0.157105"/>
<path d="M56.0699 45.6646V52.1308H62.3876V45.6646H56.0699ZM54.1568 53.2836V44.5119C54.1568 43.9354 54.6343 43.359 55.1119 43.359H63.3428C63.8202 43.359 64.2978 43.9353 64.2978 44.5119V53.2836C64.2978 53.8598 63.8202 54.4397 63.3428 54.4397H55.1119C54.6343 54.4397 54.1568 53.8598 54.1568 53.2836ZM54.036 40.8805H54.0304C53.7818 40.8801 53.5356 40.9393 53.3061 41.0545C53.0766 41.1698 52.8683 41.3388 52.6932 41.5518C52.3505 41.9653 52.1342 42.535 52.1342 43.1623V53.833C52.1342 54.4636 52.3505 55.0366 52.6932 55.4503C53.0463 55.8772 53.5249 56.1185 54.0247 56.1216H64.8119C65.3342 56.1216 65.809 55.8638 66.1518 55.4503C66.4918 55.0368 66.7079 54.4637 66.7079 53.8396V43.1726C66.7082 42.8721 66.6592 42.5744 66.5638 42.2969C66.4683 42.0193 66.3283 41.7672 66.1518 41.5553C65.8091 41.1416 65.337 40.8839 64.8175 40.8805H62.7498C62.3875 40.8805 61.9099 40.4296 61.8228 40.0056L61.8199 39.9921V39.9852C61.7807 39.8123 61.7357 39.6563 61.6823 39.5207C61.6238 39.3699 61.5543 39.2258 61.4745 39.0901C61.0673 38.4086 60.4014 37.9576 59.6542 37.9576H58.7889H58.7918L54.036 40.8805ZM54.0332 38.5748H55.0388C55.4631 37.466 56.2131 36.5709 57.1372 36.0759C57.3667 35.954 57.6044 35.8565 57.8478 35.7843C58.1546 35.6977 58.4683 35.6522 58.7833 35.6487H59.6541C61.0389 35.6487 62.2721 36.4862 63.0249 37.7577C63.1726 38.006 63.3006 38.2705 63.4071 38.5477C63.41 38.5545 63.4155 38.5714 63.4184 38.5714H64.8174C65.8595 38.5748 66.8061 39.0935 67.4945 39.9208C68.1883 40.755 68.618 41.9045 68.618 43.1691V53.8361C68.6152 55.0941 68.1882 56.2402 67.503 57.0676C66.8118 57.9051 65.8567 58.4237 64.8119 58.4271H54.0247C52.9826 58.4237 52.0331 57.9051 51.3476 57.0779C50.6565 56.2436 50.224 55.0908 50.2212 53.8297V43.159C50.224 41.901 50.6536 40.7583 51.3391 39.9276C52.0303 39.0901 52.9854 38.5714 54.0303 38.568L54.0332 38.5748ZM58.7863 37.9576C58.6178 37.961 58.4491 37.9814 58.2891 38.0322C58.1544 38.0695 58.0251 38.117 57.907 38.1849C57.2806 38.5205 56.8002 39.1918 56.6317 40.0056C56.5447 40.4294 56.0671 40.8805 55.7046 40.8805H54.0388" fill="#0D0D0D"/>
<path d="M55.1148 44.5085V53.2836H63.3456V44.5085H55.1148ZM54.0361 39.7243C52.4658 39.7243 51.1792 41.2739 51.1792 43.1726V53.8228C51.1792 55.7181 52.4658 57.2709 54.0361 57.2709H64.8063C66.3793 57.2709 67.6632 55.7181 67.6632 53.8228V43.1726C67.6632 41.2738 66.3793 39.7243 64.8063 39.7243H62.7499C62.4017 38.0494 61.143 36.7981 59.6543 36.7981H58.8031C57.3141 36.7981 56.053 38.0494 55.7045 39.7243H54.0361Z" fill="url(#paint9_linear)"/>
<path d="M58.1597 48.3264V39.5071C58.1597 38.4593 58.4517 37.6016 58.8085 37.6016H59.6512C60.0079 37.6016 60.3002 38.4593 60.3002 39.5071V48.3264H58.1597Z" fill="#191919" stroke="black" stroke-width="0.157105"/>
<defs>
<linearGradient id="paint0_linear" x1="49.3182" y1="-1304.6" x2="49.3182" y2="-1299.01" gradientUnits="userSpaceOnUse">
<stop stop-color="#613050"/>
<stop offset="0.502" stop-color="#673455"/>
<stop offset="1" stop-color="#C979AC"/>
</linearGradient>
<linearGradient id="paint1_linear" x1="57.6666" y1="-1292.64" x2="57.6666" y2="-1298.25" gradientUnits="userSpaceOnUse">
<stop stop-color="#613050"/>
<stop offset="0.251" stop-color="#663354"/>
<stop offset="1" stop-color="#C979AC"/>
</linearGradient>
<linearGradient id="paint2_linear" x1="13.0068" y1="42.7792" x2="-116.936" y2="186.215" gradientUnits="userSpaceOnUse">
<stop stop-color="#CBC9DD"/>
<stop offset="0.659" stop-color="#F9F9FB"/>
<stop offset="1" stop-color="white"/>
</linearGradient>
<linearGradient id="paint3_linear" x1="57.6666" y1="-1278.77" x2="57.6666" y2="-1284.95" gradientUnits="userSpaceOnUse">
<stop stop-color="#1E3918"/>
<stop offset="0.251" stop-color="#1E3918"/>
<stop offset="1" stop-color="#3BBB4E"/>
</linearGradient>
<linearGradient id="paint4_linear" x1="57.6665" y1="-1285.7" x2="57.6665" y2="-1291.77" gradientUnits="userSpaceOnUse">
<stop stop-color="#1E2576"/>
<stop offset="0.251" stop-color="#202A7C"/>
<stop offset="1" stop-color="#3C5EB5"/>
</linearGradient>
<linearGradient id="paint5_linear" x1="30.0046" y1="28.8512" x2="30.9509" y2="71.7916" gradientUnits="userSpaceOnUse">
<stop stop-color="#F1F060"/>
<stop offset="1"/>
</linearGradient>
<linearGradient id="paint6_linear" x1="29.9926" y1="78.1381" x2="30.9393" y2="121.101" gradientUnits="userSpaceOnUse">
<stop stop-color="#F1F060"/>
<stop offset="1"/>
</linearGradient>
<linearGradient id="paint7_linear" x1="29.9803" y1="52.0976" x2="30.927" y2="95.0593" gradientUnits="userSpaceOnUse">
<stop stop-color="#F1F060"/>
<stop offset="1"/>
</linearGradient>
<linearGradient id="paint8_linear" x1="308.041" y1="-1040.48" x2="299.291" y2="-1015.11" gradientUnits="userSpaceOnUse">
<stop stop-color="#974810"/>
<stop offset="0.318" stop-color="#974810"/>
<stop offset="1" stop-color="#663333"/>
</linearGradient>
<linearGradient id="paint9_linear" x1="59.4212" y1="-1294.42" x2="59.4212" y2="-1289.91" gradientUnits="userSpaceOnUse">
<stop stop-color="#666666"/>
<stop offset="0.122" stop-color="#B5B1B4"/>
<stop offset="0.188" stop-color="#E5E5E5"/>
<stop offset="0.302" stop-color="white"/>
<stop offset="0.4" stop-color="#C8CECB"/>
<stop offset="0.62" stop-color="#9F9A9E"/>
<stop offset="0.89" stop-color="#666467"/>
<stop offset="1" stop-color="#666666"/>
</linearGradient>
</defs>
</svg>
